<?xml version="1.0" standalone="no"?>
<!DOCTYPE svg PUBLIC "-//W3C//DTD SVG 20010904//EN"
 "http://www.w3.org/TR/2001/REC-SVG-20010904/DTD/svg10.dtd">
<svg version="1.0" xmlns="http://www.w3.org/2000/svg"
 width="490.000000pt" height="490.000000pt" viewBox="0 0 490.000000 490.000000"
 preserveAspectRatio="xMidYMid meet">
<metadata>
Created by potrace 1.11, written by Peter Selinger 2001-2013
</metadata>
<g transform="translate(0.000000,490.000000) scale(0.100000,-0.100000)"
fill="#000000" stroke="none">
<path d="M2175 4574 c-403 -54 -764 -210 -1070 -460 -181 -148 -348 -334 -465
-519 -396 -624 -440 -1424 -113 -2085 278 -563 768 -968 1369 -1130 238 -65
561 -87 809 -56 381 47 727 186 1040 420 185 138 405 382 538 596 193 314 306
715 307 1091 0 515 -155 965 -468 1357 -348 435 -846 714 -1406 788 -135 17
-406 17 -541 -2z m1170 -796 c18 -18 44 -44 59 -57 l26 -25 35 34 c19 18 37
32 39 29 3 -2 68 -66 146 -143 l141 -139 -135 -136 c-135 -136 -202 -214 -371
-436 -95 -124 -123 -161 -331 -425 -131 -168 -278 -330 -298 -330 -6 0 -119
108 -251 240 l-240 241 85 82 c81 78 246 214 480 393 142 109 192 148 291 223
46 36 121 96 167 135 l83 69 -40 41 -41 40 -32 -31 c-18 -17 -97 -79 -175
-139 -77 -60 -196 -152 -264 -204 -67 -52 -127 -98 -133 -102 -6 -4 -3 -14 9
-28 17 -18 17 -22 3 -36 -13 -14 -19 -13 -51 3 -28 14 -37 24 -37 44 0 27 0
27 255 223 39 30 126 98 195 151 119 92 301 260 321 298 14 25 28 21 64 -15z
m-746 -1678 c0 -3 -68 -59 -151 -125 -154 -123 -346 -287 -523 -449 -55 -50
-117 -104 -139 -120 l-38 -29 -169 169 c-93 93 -169 173 -169 179 1 17 52 79
218 263 168 186 292 332 420 494 l77 98 238 -238 c130 -130 237 -239 236 -242z
m-1068 -597 l147 -147 -76 -39 c-42 -22 -141 -75 -220 -119 -95 -52 -150 -77
-162 -73 -10 3 -37 -3 -59 -15 -22 -11 -43 -20 -46 -20 -3 0 6 21 19 47 17 31
22 51 16 58 -7 8 17 60 73 161 46 82 99 181 118 221 19 40 36 72 38 72 3 1 71
-65 152 -146z"/>
</g>
</svg>
